<svg width="58" height="56" viewBox="0 0 58 56" fill="none" xmlns="http://www.w3.org/2000/svg">
<g clip-path="url(#clip0_0_95)">
<path d="M51.931 4.55926L48.0862 13.0446C47.9099 13.4335 47.8187 13.8557 47.8187 14.2827V52.1315C47.8187 53.2361 48.7142 54.1315 49.8187 54.1315H54.9541C56.0587 54.1315 56.9541 53.2361 56.9541 52.1315V14.2827C56.9541 13.8557 56.8629 13.4335 56.6867 13.0446L52.8418 4.55926C52.6644 4.16774 52.1084 4.16774 51.931 4.55926Z" stroke="#D1B06B" stroke-width="2"/>
<path d="M47.8187 14.2827H52.9574H56.9541" stroke="#D1B06B" stroke-width="2"/>
<path d="M33.6711 24.3364H8.00094C7.35651 24.3364 6.83411 24.8588 6.83411 25.5033C6.83411 26.1477 7.35651 26.6701 8.00094 26.6701H33.6711C34.3155 26.6701 34.8379 26.1477 34.8379 25.5033C34.8379 24.8588 34.3155 24.3364 33.6711 24.3364Z" fill="#D1B06B"/>
<path d="M16.8355 8.16748H9.66772C8.83929 8.16748 8.16772 8.83905 8.16772 9.66748V14.5016C8.16772 15.33 8.83929 16.0016 9.66772 16.0016H16.8355C17.6639 16.0016 18.3355 15.33 18.3355 14.5016V9.66748C18.3355 8.83905 17.6639 8.16748 16.8355 8.16748Z" stroke="#D1B06B" stroke-width="2"/>
<path d="M33.6711 36.0044H8.00094C7.35651 36.0044 6.83411 36.5268 6.83411 37.1712C6.83411 37.8156 7.35651 38.338 8.00094 38.338H33.6711C34.3155 38.338 34.8379 37.8156 34.8379 37.1712C34.8379 36.5268 34.3155 36.0044 33.6711 36.0044Z" fill="#D1B06B"/>
<path d="M23.1697 41.8384H8.00094C7.35651 41.8384 6.83411 42.3608 6.83411 43.0052C6.83411 43.6496 7.35651 44.172 8.00094 44.172H23.1697C23.8141 44.172 24.3365 43.6496 24.3365 43.0052C24.3365 42.3608 23.8141 41.8384 23.1697 41.8384Z" fill="#D1B06B"/>
<path d="M33.6711 30.1704H8.00094C7.35651 30.1704 6.83411 30.6928 6.83411 31.3372C6.83411 31.9817 7.35651 32.5041 8.00094 32.5041H33.6711C34.3155 32.5041 34.8379 31.9817 34.8379 31.3372C34.8379 30.6928 34.3155 30.1704 33.6711 30.1704Z" fill="#D1B06B"/>
<path d="M47.8187 49.0225H56.9541" stroke="#D1B06B" stroke-width="2"/>
<path d="M1 7.99999V47.3848C1 51.2508 4.13401 54.3848 8 54.3848H34.2603C38.1263 54.3848 41.2603 51.2508 41.2603 47.3848V15.7282C41.2603 13.7407 40.4154 11.8469 38.9365 10.5192L30.3278 2.79104C29.0432 1.63786 27.3778 1 25.6516 1H8C4.13401 1 1 4.134 1 7.99999Z" stroke="#D1B06B" stroke-width="2"/>
<path d="M25.9808 1.2168V10.8885C25.9808 13.0977 27.7717 14.8885 29.9808 14.8885H40.2902" stroke="#D1B06B" stroke-width="2" stroke-linecap="round"/>
</g>
<defs>
<clipPath id="clip0_0_95">
<rect width="58" height="56" fill="white"/>
</clipPath>
</defs>
</svg>
