<svg width="18" height="16" viewBox="0 0 18 16" fill="none" xmlns="http://www.w3.org/2000/svg">
<g clip-path="url(#clip0_0_47)">
<path d="M17.3571 0.800293H0.642857C0.472361 0.800293 0.308848 0.869254 0.188288 0.992005C0.0677294 1.11475 0 1.28124 0 1.45483V14.5457C0 14.7193 0.0677294 14.8858 0.188288 15.0085C0.308848 15.1313 0.472361 15.2002 0.642857 15.2002H17.3571C17.5276 15.2002 17.6912 15.1313 17.8117 15.0085C17.9323 14.8858 18 14.7193 18 14.5457V1.45483C18 1.28124 17.9323 1.11475 17.8117 0.992005C17.6912 0.869254 17.5276 0.800293 17.3571 0.800293ZM9.39455 9.17152C9.28173 9.26082 9.1429 9.3093 9 9.3093C8.8571 9.3093 8.71827 9.26082 8.60545 9.17152L2.31228 4.18797L3.10138 3.15461L9 7.82561L14.8986 3.15461L15.6877 4.18797L9.39455 9.17152Z" fill="#CCAA60"/>
</g>
<defs>
<clipPath id="clip0_0_47">
<rect width="18" height="16" fill="white"/>
</clipPath>
</defs>
</svg>
