<svg width="53" height="36" viewBox="0 0 53 36" fill="none" xmlns="http://www.w3.org/2000/svg">
<mask id="mask0_0_233" style="mask-type:alpha" maskUnits="userSpaceOnUse" x="0" y="0" width="32" height="32">
<path d="M30.2857 0H1.51429C0.677969 0 0 0.685862 0 1.53191V29.8723C0 30.7184 0.677969 31.4043 1.51429 31.4043H30.2857C31.122 31.4043 31.8 30.7184 31.8 29.8723V1.53191C31.8 0.685862 31.122 0 30.2857 0Z" fill="white"/>
</mask>
<g mask="url(#mask0_0_233)">
<path d="M30.2857 0H1.51429C0.677969 0 0 0.685862 0 1.53191V29.8723C0 30.7184 0.677969 31.4043 1.51429 31.4043H30.2857C31.122 31.4043 31.8 30.7184 31.8 29.8723V1.53191C31.8 0.685862 31.122 0 30.2857 0Z" stroke="#D1B06B" stroke-width="6"/>
</g>
<mask id="mask1_0_233" style="mask-type:alpha" maskUnits="userSpaceOnUse" x="29" y="7" width="24" height="25">
<path d="M29.5408 7.93931C29.5408 7.51627 29.8797 7.17334 30.2979 7.17334H43.5357C48.5536 7.17334 52.6214 11.2885 52.6214 16.3648V30.6215C52.6214 31.0446 52.2825 31.3875 51.8643 31.3875H30.2979C29.8797 31.3875 29.5408 31.0446 29.5408 30.6215V7.93931Z" fill="white"/>
</mask>
<g mask="url(#mask1_0_233)">
<path d="M29.5408 7.93931C29.5408 7.51627 29.8797 7.17334 30.2979 7.17334H43.5357C48.5536 7.17334 52.6214 11.2885 52.6214 16.3648V30.6215C52.6214 31.0446 52.2825 31.3875 51.8643 31.3875H30.2979C29.8797 31.3875 29.5408 31.0446 29.5408 30.6215V7.93931Z" stroke="#D1B06B" stroke-width="6"/>
</g>
<mask id="mask2_0_233" style="mask-type:alpha" maskUnits="userSpaceOnUse" x="38" y="7" width="15" height="13">
<path d="M38.944 7.17334H43.5358C48.5537 7.17334 52.6215 11.2885 52.6215 16.3648V18.5144C52.6215 18.9375 52.2825 19.2804 51.8644 19.2804H41.2155C39.961 19.2804 38.944 18.2516 38.944 16.9825V7.17334Z" fill="white"/>
</mask>
<g mask="url(#mask2_0_233)">
<path d="M38.944 7.17334H43.5358C48.5537 7.17334 52.6215 11.2885 52.6215 16.3648V18.5144C52.6215 18.9375 52.2825 19.2804 51.8644 19.2804H41.2155C39.961 19.2804 38.944 18.2516 38.944 16.9825V7.17334Z" stroke="#D1B06B" stroke-width="6"/>
</g>
</svg>
