<svg width="53" height="46" viewBox="0 0 53 46" fill="none" xmlns="http://www.w3.org/2000/svg">
<g clip-path="url(#clip0_0_140)">
<path d="M1.24219 4.18167C1.24219 2.56498 2.53986 1.25439 4.14062 1.25439H23.0515C24.6523 1.25439 25.95 2.56498 25.95 4.18167V44.7453H4.14062C2.53986 44.7453 1.24219 43.4347 1.24219 41.818V4.18167Z" stroke="#BB9F64" stroke-width="3"/>
<path d="M26.3948 23.4058C26.3948 21.7891 27.6925 20.4785 29.2933 20.4785H48.2042C49.805 20.4785 51.1027 21.7891 51.1027 23.4058V41.8183C51.1027 43.4349 49.805 44.7455 48.2042 44.7455H26.3948V23.4058Z" stroke="#BB9F64" stroke-width="3"/>
<path d="M10.7287 8.23877H6.26674C5.80938 8.23877 5.43861 8.61322 5.43861 9.07513V10.8352C5.43861 11.2972 5.80938 11.6716 6.26674 11.6716H10.7287C11.1861 11.6716 11.5569 11.2972 11.5569 10.8352V9.07513C11.5569 8.61322 11.1861 8.23877 10.7287 8.23877Z" fill="#BB9F64"/>
<path d="M35.8814 26.0898H31.4194C30.962 26.0898 30.5913 26.4643 30.5913 26.9262V28.6863C30.5913 29.1482 30.962 29.5227 31.4194 29.5227H35.8814C36.3387 29.5227 36.7095 29.1482 36.7095 28.6863V26.9262C36.7095 26.4643 36.3387 26.0898 35.8814 26.0898Z" fill="#BB9F64"/>
<path d="M10.7287 17.1641H6.26674C5.80938 17.1641 5.43861 17.5385 5.43861 18.0004V19.7605C5.43861 20.2224 5.80938 20.5969 6.26674 20.5969H10.7287C11.1861 20.5969 11.5569 20.2224 11.5569 19.7605V18.0004C11.5569 17.5385 11.1861 17.1641 10.7287 17.1641Z" fill="#BB9F64"/>
<path d="M35.8814 34.3281H31.4194C30.962 34.3281 30.5913 34.7026 30.5913 35.1645V36.9246C30.5913 37.3865 30.962 37.761 31.4194 37.761H35.8814C36.3387 37.761 36.7095 37.3865 36.7095 36.9246V35.1645C36.7095 34.7026 36.3387 34.3281 35.8814 34.3281Z" fill="#BB9F64"/>
<path d="M10.7287 26.0898H6.26674C5.80938 26.0898 5.43861 26.4643 5.43861 26.9262V28.6863C5.43861 29.1482 5.80938 29.5227 6.26674 29.5227H10.7287C11.1861 29.5227 11.5569 29.1482 11.5569 28.6863V26.9262C11.5569 26.4643 11.1861 26.0898 10.7287 26.0898Z" fill="#BB9F64"/>
<path d="M10.7287 35.0151H6.26674C5.80938 35.0151 5.43861 35.3896 5.43861 35.8515V37.6116C5.43861 38.0735 5.80938 38.448 6.26674 38.448H10.7287C11.1861 38.448 11.5569 38.0735 11.5569 37.6116V35.8515C11.5569 35.3896 11.1861 35.0151 10.7287 35.0151Z" fill="#BB9F64"/>
<path d="M20.9254 8.23877H16.4635C16.0061 8.23877 15.6353 8.61322 15.6353 9.07513V10.8352C15.6353 11.2972 16.0061 11.6716 16.4635 11.6716H20.9254C21.3828 11.6716 21.7536 11.2972 21.7536 10.8352V9.07513C21.7536 8.61322 21.3828 8.23877 20.9254 8.23877Z" fill="#BB9F64"/>
<path d="M46.0785 26.0898H41.6165C41.1591 26.0898 40.7884 26.4643 40.7884 26.9262V28.6863C40.7884 29.1482 41.1591 29.5227 41.6165 29.5227H46.0785C46.5359 29.5227 46.9066 29.1482 46.9066 28.6863V26.9262C46.9066 26.4643 46.5359 26.0898 46.0785 26.0898Z" fill="#BB9F64"/>
<path d="M20.9254 17.1641H16.4635C16.0061 17.1641 15.6353 17.5385 15.6353 18.0004V19.7605C15.6353 20.2224 16.0061 20.5969 16.4635 20.5969H20.9254C21.3828 20.5969 21.7536 20.2224 21.7536 19.7605V18.0004C21.7536 17.5385 21.3828 17.1641 20.9254 17.1641Z" fill="#BB9F64"/>
<path d="M46.0785 34.3281H41.6165C41.1591 34.3281 40.7884 34.7026 40.7884 35.1645V36.9246C40.7884 37.3865 41.1591 37.761 41.6165 37.761H46.0785C46.5359 37.761 46.9066 37.3865 46.9066 36.9246V35.1645C46.9066 34.7026 46.5359 34.3281 46.0785 34.3281Z" fill="#BB9F64"/>
<path d="M20.9254 26.0898H16.4635C16.0061 26.0898 15.6353 26.4643 15.6353 26.9262V28.6863C15.6353 29.1482 16.0061 29.5227 16.4635 29.5227H20.9254C21.3828 29.5227 21.7536 29.1482 21.7536 28.6863V26.9262C21.7536 26.4643 21.3828 26.0898 20.9254 26.0898Z" fill="#BB9F64"/>
<path d="M20.9254 35.0151H16.4635C16.0061 35.0151 15.6353 35.3896 15.6353 35.8515V37.6116C15.6353 38.0735 16.0061 38.448 16.4635 38.448H20.9254C21.3828 38.448 21.7536 38.0735 21.7536 37.6116V35.8515C21.7536 35.3896 21.3828 35.0151 20.9254 35.0151Z" fill="#BB9F64"/>
</g>
<defs>
<clipPath id="clip0_0_140">
<rect width="53" height="46" fill="white"/>
</clipPath>
</defs>
</svg>
